<svg width="26" height="29" viewBox="0 0 26 29" fill="none" xmlns="http://www.w3.org/2000/svg">
<path d="M21.3235 4.83325H4.26468C3.09188 4.83325 2.13232 5.92075 2.13232 7.24992V21.7499C2.13232 23.0791 3.09188 24.1666 4.26468 24.1666H21.3235C22.4963 24.1666 23.4559 23.0791 23.4559 21.7499V7.24992C23.4559 5.92075 22.4963 4.83325 21.3235 4.83325ZM20.897 9.96867L13.9242 14.9108C13.2312 15.4062 12.357 15.4062 11.6639 14.9108L4.69115 9.96867C4.4246 9.77533 4.26468 9.44909 4.26468 9.09867C4.26468 8.28909 5.04299 7.80575 5.65071 8.22867L12.7941 13.2916L19.9375 8.22867C20.5452 7.80575 21.3235 8.28909 21.3235 9.09867C21.3235 9.44909 21.1636 9.77533 20.897 9.96867Z" fill="#1C1C1C"/>
</svg>
